<svg width="72" height="70" viewBox="0 0 72 70" fill="none" xmlns="http://www.w3.org/2000/svg">
<mask id="path-1-inside-1_1000064_42" fill="white">
<path fill-rule="evenodd" clip-rule="evenodd" d="M36.0737 0L38.0857 5.02993L46.1577 25.2099H66.2327H72L67.6597 29.0076L51.4752 43.169L57.5372 63.3758L59.2663 69.1392L54.2596 65.8014L36.0873 53.6865L17.9064 66.0803L12.9297 69.4729L14.6043 63.6873L20.6764 42.7087L4.51491 29.0309L-3.53049e-05 25.2099H5.9148H25.9898L34.0617 5.02994L36.0737 0ZM36.0737 11.6694L29.4689 28.1816L28.924 29.5438H27.4569H11.8296L24.5484 40.3078L25.6205 41.2152L25.23 42.5644L20.442 59.1067L34.8532 49.2827L36.0603 48.4598L37.2758 49.2701L51.6571 58.8577L46.9235 43.079L46.5228 41.7436L47.5721 40.8255L60.4655 29.5438H44.6906H43.2235L42.6786 28.1816L36.0737 11.6694Z"/>
</mask>
<path fill-rule="evenodd" clip-rule="evenodd" d="M36.0737 0L38.0857 5.02993L46.1577 25.2099H66.2327H72L67.6597 29.0076L51.4752 43.169L57.5372 63.3758L59.2663 69.1392L54.2596 65.8014L36.0873 53.6865L17.9064 66.0803L12.9297 69.4729L14.6043 63.6873L20.6764 42.7087L4.51491 29.0309L-3.53049e-05 25.2099H5.9148H25.9898L34.0617 5.02994L36.0737 0ZM36.0737 11.6694L29.4689 28.1816L28.924 29.5438H27.4569H11.8296L24.5484 40.3078L25.6205 41.2152L25.23 42.5644L20.442 59.1067L34.8532 49.2827L36.0603 48.4598L37.2758 49.2701L51.6571 58.8577L46.9235 43.079L46.5228 41.7436L47.5721 40.8255L60.4655 29.5438H44.6906H43.2235L42.6786 28.1816L36.0737 11.6694Z" fill="white"/>
<path d="M38.0857 5.02993L31.5829 7.63107V7.63108L38.0857 5.02993ZM36.0737 0L42.5765 -2.60114L36.0737 -18.8582L29.5709 -2.60112L36.0737 0ZM46.1577 25.2099L39.6549 27.811L41.4159 32.2136H46.1577V25.2099ZM72 25.2099L76.612 30.4807L90.6401 18.2061H72V25.2099ZM67.6597 29.0076L63.0477 23.7368H63.0477L67.6597 29.0076ZM51.4752 43.169L46.8632 37.8982L43.472 40.8655L44.7668 45.1816L51.4752 43.169ZM57.5372 63.3758L50.8288 65.3883L57.5372 63.3758ZM59.2663 69.1392L55.3813 74.9667L71.563 85.7545L65.9747 67.1267L59.2663 69.1392ZM54.2596 65.8014L58.1446 59.974L54.2596 65.8014ZM36.0873 53.6865L39.9722 47.859L36.0436 45.24L32.1423 47.8995L36.0873 53.6865ZM17.9064 66.0803L21.8514 71.8673L17.9064 66.0803ZM12.9297 69.4729L6.20212 67.5256L0.789727 86.225L16.8747 75.2599L12.9297 69.4729ZM14.6043 63.6873L7.87671 61.74L7.87671 61.74L14.6043 63.6873ZM20.6764 42.7087L27.4041 44.6559L28.6662 40.2952L25.201 37.3625L20.6764 42.7087ZM4.51491 29.0309L-0.00961289 34.3771L-0.00961252 34.3771L4.51491 29.0309ZM-3.53049e-05 25.2099V18.2061H-19.1172L-4.52456 30.556L-3.53049e-05 25.2099ZM25.9898 25.2099V32.2136H30.7316L32.4926 27.811L25.9898 25.2099ZM34.0617 5.02994L27.5589 2.42881L27.5589 2.42882L34.0617 5.02994ZM29.4689 28.1816L22.9661 25.5805L22.966 25.5805L29.4689 28.1816ZM36.0737 11.6694L42.5766 9.0683L36.0737 -7.18876L29.5709 9.06833L36.0737 11.6694ZM28.924 29.5438V36.5476H33.6658L35.4269 32.1449L28.924 29.5438ZM11.8296 29.5438V22.54H-7.2875L7.30511 34.89L11.8296 29.5438ZM24.5484 40.3078L20.0239 45.654L20.0239 45.654L24.5484 40.3078ZM25.6205 41.2152L32.3482 43.1625L33.6103 38.8018L30.1451 35.8691L25.6205 41.2152ZM25.23 42.5644L18.5024 40.6172L25.23 42.5644ZM20.442 59.1067L13.7144 57.1594L8.30196 75.8588L24.387 64.8937L20.442 59.1067ZM34.8532 49.2827L38.7982 55.0697L38.7982 55.0697L34.8532 49.2827ZM36.0603 48.4598L39.9453 42.6323L36.0166 40.0132L32.1153 42.6728L36.0603 48.4598ZM37.2758 49.2701L33.3908 55.0976L33.3908 55.0976L37.2758 49.2701ZM51.6571 58.8577L47.7721 64.6851L63.9538 75.473L58.3654 56.8451L51.6571 58.8577ZM46.9235 43.079L53.6318 41.0665L53.6318 41.0665L46.9235 43.079ZM46.5228 41.7436L41.9108 36.4727L38.5196 39.44L39.8144 43.7561L46.5228 41.7436ZM47.5721 40.8255L52.1841 46.0964L52.1841 46.0964L47.5721 40.8255ZM60.4655 29.5438L65.0775 34.8147L79.1056 22.54H60.4655V29.5438ZM43.2235 29.5438L36.7207 32.1449L38.4817 36.5476H43.2235V29.5438ZM42.6786 28.1816L36.1758 30.7828V30.7828L42.6786 28.1816ZM44.5885 2.42879L42.5765 -2.60114L29.5709 2.60114L31.5829 7.63107L44.5885 2.42879ZM52.6605 22.6087L44.5885 2.42879L31.5829 7.63108L39.6549 27.811L52.6605 22.6087ZM66.2327 18.2061H46.1577V32.2136H66.2327V18.2061ZM72 18.2061H66.2327V32.2136H72V18.2061ZM72.2717 34.2785L76.612 30.4807L67.388 19.939L63.0477 23.7368L72.2717 34.2785ZM56.0872 48.4399L72.2717 34.2785L63.0477 23.7368L46.8632 37.8982L56.0872 48.4399ZM64.2456 61.3632L58.1836 41.1565L44.7668 45.1816L50.8288 65.3883L64.2456 61.3632ZM65.9747 67.1267L64.2456 61.3632L50.8288 65.3883L52.5579 71.1517L65.9747 67.1267ZM50.3747 71.6289L55.3813 74.9667L63.1513 63.3117L58.1446 59.974L50.3747 71.6289ZM32.2023 59.514L50.3747 71.6289L58.1446 59.974L39.9722 47.859L32.2023 59.514ZM21.8514 71.8673L40.0322 59.4736L32.1423 47.8995L13.9614 60.2933L21.8514 71.8673ZM16.8747 75.2599L21.8514 71.8673L13.9614 60.2933L8.98475 63.6858L16.8747 75.2599ZM7.87671 61.74L6.20212 67.5256L19.6574 71.4201L21.332 65.6346L7.87671 61.74ZM13.9488 40.7614L7.87671 61.74L21.332 65.6346L27.4041 44.6559L13.9488 40.7614ZM-0.00961252 34.3771L16.1519 48.0548L25.201 37.3625L9.03944 23.6848L-0.00961252 34.3771ZM-4.52456 30.556L-0.00961289 34.3771L9.03944 23.6848L4.52449 19.8637L-4.52456 30.556ZM5.9148 18.2061H-3.53049e-05V32.2136H5.9148V18.2061ZM25.9898 18.2061H5.9148V32.2136H25.9898V18.2061ZM27.5589 2.42882L19.487 22.6088L32.4926 27.811L40.5646 7.63106L27.5589 2.42882ZM29.5709 -2.60112L27.5589 2.42881L40.5646 7.63106L42.5765 2.60112L29.5709 -2.60112ZM35.9717 30.7827L42.5766 14.2706L29.5709 9.06833L22.9661 25.5805L35.9717 30.7827ZM35.4269 32.1449L35.9717 30.7827L22.966 25.5805L22.4212 26.9427L35.4269 32.1449ZM27.4569 36.5476H28.924V22.54H27.4569V36.5476ZM11.8296 36.5476H27.4569V22.54H11.8296V36.5476ZM29.0729 34.9617L16.3542 24.1976L7.30511 34.89L20.0239 45.654L29.0729 34.9617ZM30.1451 35.8691L29.0729 34.9617L20.0239 45.654L21.096 46.5614L30.1451 35.8691ZM31.9576 44.5117L32.3482 43.1625L18.8929 39.268L18.5024 40.6172L31.9576 44.5117ZM27.1696 61.054L31.9576 44.5117L18.5024 40.6172L13.7144 57.1594L27.1696 61.054ZM30.9082 43.4956L16.497 53.3197L24.387 64.8937L38.7982 55.0697L30.9082 43.4956ZM32.1153 42.6728L30.9082 43.4956L38.7982 55.0697L40.0053 54.2468L32.1153 42.6728ZM41.1608 43.4427L39.9453 42.6323L32.1753 54.2873L33.3908 55.0976L41.1608 43.4427ZM55.542 53.0302L41.1608 43.4427L33.3908 55.0976L47.7721 64.6851L55.542 53.0302ZM40.2151 45.0915L44.9487 60.8702L58.3654 56.8451L53.6318 41.0665L40.2151 45.0915ZM39.8144 43.7561L40.2151 45.0915L53.6318 41.0665L53.2312 39.7311L39.8144 43.7561ZM42.9601 35.5546L41.9108 36.4727L51.1348 47.0145L52.1841 46.0964L42.9601 35.5546ZM55.8534 24.2729L42.9601 35.5546L52.1841 46.0964L65.0775 34.8147L55.8534 24.2729ZM44.6906 36.5476H60.4655V22.54H44.6906V36.5476ZM43.2235 36.5476H44.6906V22.54H43.2235V36.5476ZM36.1758 30.7828L36.7207 32.1449L49.7263 26.9426L49.1815 25.5805L36.1758 30.7828ZM29.5709 14.2706L36.1758 30.7828L49.1815 25.5805L42.5766 9.0683L29.5709 14.2706Z" fill="white" mask="url(#path-1-inside-1_1000064_42)"/>
</svg>
