<svg width="173" height="39" viewBox="0 0 173 39" fill="none" xmlns="http://www.w3.org/2000/svg">
<path d="M0 38.1819H17.891C25.4182 38.1819 31.3092 34.4728 31.3092 27.6001C31.3092 22.6364 27.6001 19.091 22.691 18.2182C26.9455 17.0728 30.0546 13.9637 30.0546 9.27275C30.0546 3.76365 25.8546 0 17.5637 0H0V38.1819ZM7.09092 15.4364V6.05456H16.6364C20.4546 6.05456 22.8546 7.4182 22.8546 10.6364C22.8546 13.8546 20.4546 15.4364 16.6364 15.4364H7.09092ZM7.09092 32.1274V21.3819H16.8546C21.1091 21.3819 23.891 23.1273 23.891 26.7273C23.891 30.3819 21.1091 32.1274 16.8546 32.1274H7.09092Z" fill="black" fill-opacity="0.8"/>
<path d="M46.4682 39.0001C51.8136 39.0001 54.3227 35.5092 55.4136 33.7092V38.1819H62.0136V11.0182H55.3591V23.7819C55.3591 28.1455 54.3773 33.4364 49.1954 33.4364C46.3045 33.4364 44.5045 31.7455 44.5045 27.5455V11.0182H37.8499V29.1273C37.8499 35.0728 40.85 39.0001 46.4682 39.0001Z" fill="black" fill-opacity="0.8"/>
<path d="M79.957 38.1819H88.0298V32.7274H82.2479C80.5025 32.7274 79.7388 31.9637 79.7388 30.2183V16.2H86.9389V11.0182H79.7388V2.45455H73.0843V11.0182H67.1934V16.2H73.0843V31.2546C73.0843 35.5637 75.5388 38.1819 79.957 38.1819Z" fill="black" fill-opacity="0.8"/>
<path d="M103.188 38.1819H111.261V32.7274H105.479C103.733 32.7274 102.97 31.9637 102.97 30.2183V16.2H110.17V11.0182H102.97V2.45455H96.3151V11.0182H90.4242V16.2H96.3151V31.2546C96.3151 35.5637 98.7697 38.1819 103.188 38.1819Z" fill="black" fill-opacity="0.8"/>
<path d="M128.281 39.0001C136.19 39.0001 141.972 33.2183 141.972 24.6001C141.972 16.0909 136.245 10.2 128.281 10.2C120.317 10.2 114.59 16.0909 114.59 24.6001C114.59 32.891 120.372 39.0001 128.281 39.0001ZM128.281 33.6001C124.245 33.6001 121.463 30.7637 121.463 24.7092C121.463 18.6546 124.245 15.6 128.281 15.6C132.317 15.6 135.045 18.6546 135.045 24.7092C135.045 30.7637 132.317 33.6001 128.281 33.6001Z" fill="black" fill-opacity="0.8"/>
<path d="M148.413 38.1819H155.067V25.8001C155.067 22.4728 155.176 15.7637 161.285 15.7637C164.285 15.7637 166.194 17.5091 166.194 21.6001V38.1819H172.849V20.1273C172.849 14.1819 170.176 10.2 163.685 10.2C158.394 10.2 155.776 13.7455 154.903 15.3273V11.0182H148.413V38.1819Z" fill="black" fill-opacity="0.8"/>
</svg>
