<svg width="195" height="44" viewBox="0 0 195 44" fill="none" xmlns="http://www.w3.org/2000/svg">
<path d="M0 43.075H20.1837C28.6756 43.075 35.3215 38.8906 35.3215 31.1371C35.3215 25.5373 31.1371 21.5375 25.5989 20.5529C30.3987 19.2607 33.9062 15.7531 33.9062 10.4611C33.9062 4.24597 29.1679 0 19.8145 0H0V43.075ZM7.99965 17.4146V6.83047H18.7684C23.0759 6.83047 25.7835 8.36886 25.7835 11.9995C25.7835 15.6301 23.0759 17.4146 18.7684 17.4146H7.99965ZM7.99965 36.2445V24.122H19.0145C23.8143 24.122 26.9527 26.0912 26.9527 30.1525C26.9527 34.2754 23.8143 36.2445 19.0145 36.2445H7.99965Z" fill="white"/>
<path d="M52.4232 43.998C58.4537 43.998 61.2843 40.0598 62.515 38.0291V43.075H69.9608V12.4302H62.4535V26.8296C62.4535 31.7524 61.3458 37.7214 55.4999 37.7214C52.2385 37.7214 50.2079 35.8138 50.2079 31.0755V12.4302H42.7005V32.8601C42.7005 39.5675 46.085 43.998 52.4232 43.998Z" fill="white"/>
<path d="M90.2037 43.075H99.311V36.9214H92.7882C90.819 36.9214 89.9575 36.0599 89.9575 34.0908V18.2761H98.0803V12.4302H89.9575V2.76911H82.4502V12.4302H75.8043V18.2761H82.4502V35.26C82.4502 40.1213 85.2193 43.075 90.2037 43.075Z" fill="white"/>
<path d="M116.412 43.075H125.519V36.9214H118.996C117.027 36.9214 116.166 36.0599 116.166 34.0908V18.2761H124.288V12.4302H116.166V2.76911H108.658V12.4302H102.012V18.2761H108.658V35.26C108.658 40.1213 111.427 43.075 116.412 43.075Z" fill="white"/>
<path d="M144.72 43.998C153.643 43.998 160.166 37.4753 160.166 27.7526C160.166 18.153 153.705 11.5072 144.72 11.5072C135.736 11.5072 129.275 18.153 129.275 27.7526C129.275 37.106 135.798 43.998 144.72 43.998ZM144.72 37.906C140.167 37.906 137.029 34.7062 137.029 27.8757C137.029 21.0452 140.167 17.5992 144.72 17.5992C149.274 17.5992 152.351 21.0452 152.351 27.8757C152.351 34.7062 149.274 37.906 144.72 37.906Z" fill="white"/>
<path d="M167.432 43.075H174.939V29.1064C174.939 25.3527 175.062 17.7838 181.954 17.7838C185.339 17.7838 187.493 19.753 187.493 24.3682V43.075H195V22.7067C195 15.9993 191.985 11.5072 184.662 11.5072C178.693 11.5072 175.739 15.507 174.755 17.2915V12.4302H167.432V43.075Z" fill="white"/>
</svg>
